<svg xmlns="http://www.w3.org/2000/svg" xmlns:xlink="http://www.w3.org/1999/xlink" viewBox="0 0 294.8599 278.6306"><defs><linearGradient id="linear-gradient" x1="248.4914" y1="226.4755" x2="248.4914" y2="123.9672" gradientUnits="userSpaceOnUse"><stop offset="0" stop-color="#ff465a"/><stop offset="1" stop-color="#ffc190"/></linearGradient><linearGradient id="linear-gradient-2" x1="248.4555" y1="192.9538" x2="248.4555" y2="134.328" gradientUnits="userSpaceOnUse"><stop offset="0" stop-color="#ff533c"/><stop offset="1" stop-color="#ff9056"/></linearGradient><linearGradient id="linear-gradient-3" x1="248.4555" y1="247.6026" x2="248.4555" y2="188.9769" xlink:href="#linear-gradient-2"/><linearGradient id="linear-gradient-4" x1="71.4138" y1="59.5007" x2="71.4138" y2="0.8749" xlink:href="#linear-gradient-2"/><linearGradient id="linear-gradient-5" x1="77.8591" y1="192.9538" x2="77.8591" y2="134.328" xlink:href="#linear-gradient-2"/><linearGradient id="linear-gradient-6" x1="248.4555" y1="216.0319" x2="248.4555" y2="157.33" gradientUnits="userSpaceOnUse"><stop offset="0" stop-color="#ffee7e"/><stop offset="1" stop-color="#ffffe6"/></linearGradient><linearGradient id="linear-gradient-7" x1="111.1663" y1="175.0858" x2="111.1663" y2="72.5775" xlink:href="#linear-gradient"/><linearGradient id="linear-gradient-8" x1="111.1305" y1="141.5641" x2="111.1305" y2="82.9383" xlink:href="#linear-gradient-2"/><linearGradient id="linear-gradient-9" x1="111.1305" y1="164.6422" x2="111.1305" y2="105.9403" xlink:href="#linear-gradient-6"/><linearGradient id="linear-gradient-10" x1="235.6991" y1="160.7722" x2="235.6991" y2="24.2088" gradientUnits="userSpaceOnUse"><stop offset="0" stop-color="#ff9d44"/><stop offset="1" stop-color="#ffc978"/></linearGradient><linearGradient id="linear-gradient-11" x1="235.6632" y1="148.2276" x2="235.6632" y2="100.9837" gradientUnits="userSpaceOnUse"><stop offset="0" stop-color="#ffc35f"/><stop offset="1" stop-color="#ffc978"/></linearGradient><linearGradient id="linear-gradient-12" x1="212.8303" y1="115.7833" x2="212.8303" y2="106.211" gradientUnits="userSpaceOnUse"><stop offset="0" stop-color="#fff5d9"/><stop offset="1" stop-color="#fff"/></linearGradient><linearGradient id="linear-gradient-13" x1="224.2134" y1="122.4202" x2="224.2134" y2="112.8411" xlink:href="#linear-gradient-12"/><linearGradient id="linear-gradient-14" x1="235.6094" y1="129.0647" x2="235.6094" y2="119.4787" xlink:href="#linear-gradient-12"/><linearGradient id="linear-gradient-15" x1="247.0182" y1="135.7166" x2="247.0182" y2="126.1239" xlink:href="#linear-gradient-12"/><linearGradient id="linear-gradient-16" x1="258.4401" y1="142.3762" x2="258.4401" y2="132.7766" xlink:href="#linear-gradient-12"/><linearGradient id="linear-gradient-17" x1="235.6622" y1="111.2983" x2="235.6622" y2="41.3348" gradientUnits="userSpaceOnUse"><stop offset="0" stop-color="#ff7a10"/><stop offset="1" stop-color="#ff4956"/></linearGradient><linearGradient id="linear-gradient-18" x1="235.6191" y1="116.8169" x2="235.6191" y2="82.9278" gradientUnits="userSpaceOnUse"><stop offset="0" stop-color="#ffee80"/><stop offset="1" stop-color="#ffffe6"/></linearGradient><linearGradient id="linear-gradient-19" x1="235.612" y1="113.1776" x2="235.612" y2="90.5784" gradientUnits="userSpaceOnUse"><stop offset="0" stop-color="#d74a10"/><stop offset="1" stop-color="#ff4f7d"/></linearGradient><linearGradient id="linear-gradient-20" x1="152.7979" y1="47.2439" x2="152.7979" y2="0" xlink:href="#linear-gradient-11"/><linearGradient id="linear-gradient-21" x1="129.965" y1="14.7996" x2="129.965" y2="5.2273" xlink:href="#linear-gradient-12"/><linearGradient id="linear-gradient-22" x1="141.348" y1="21.4365" x2="141.348" y2="11.8574" xlink:href="#linear-gradient-12"/><linearGradient id="linear-gradient-23" x1="152.744" y1="28.081" x2="152.744" y2="18.495" xlink:href="#linear-gradient-12"/><linearGradient id="linear-gradient-24" x1="164.153" y1="34.733" x2="164.153" y2="25.1402" xlink:href="#linear-gradient-12"/><linearGradient id="linear-gradient-25" x1="175.5748" y1="41.3926" x2="175.5748" y2="31.793" xlink:href="#linear-gradient-12"/><linearGradient id="linear-gradient-26" x1="43.164" y1="224.267" x2="43.164" y2="177.0231" xlink:href="#linear-gradient-11"/><linearGradient id="linear-gradient-27" x1="20.3311" y1="191.8227" x2="20.3311" y2="182.2504" xlink:href="#linear-gradient-12"/><linearGradient id="linear-gradient-28" x1="31.7141" y1="198.4596" x2="31.7141" y2="188.8805" xlink:href="#linear-gradient-12"/><linearGradient id="linear-gradient-29" x1="43.1101" y1="205.1041" x2="43.1101" y2="195.5181" xlink:href="#linear-gradient-12"/><linearGradient id="linear-gradient-30" x1="54.5191" y1="211.756" x2="54.5191" y2="202.1633" xlink:href="#linear-gradient-12"/><linearGradient id="linear-gradient-31" x1="65.9409" y1="218.4156" x2="65.9409" y2="208.816" xlink:href="#linear-gradient-12"/><linearGradient id="linear-gradient-32" x1="261.6888" y1="275.2327" x2="261.6888" y2="227.9888" xlink:href="#linear-gradient-11"/><linearGradient id="linear-gradient-33" x1="238.8558" y1="242.7884" x2="238.8558" y2="233.2161" xlink:href="#linear-gradient-12"/><linearGradient id="linear-gradient-34" x1="250.2389" y1="249.4253" x2="250.2389" y2="239.8462" xlink:href="#linear-gradient-12"/><linearGradient id="linear-gradient-35" x1="261.6348" y1="256.0698" x2="261.6348" y2="246.4838" xlink:href="#linear-gradient-12"/><linearGradient id="linear-gradient-36" x1="273.0437" y1="262.7217" x2="273.0437" y2="253.129" xlink:href="#linear-gradient-12"/><linearGradient id="linear-gradient-37" x1="284.4656" y1="269.3813" x2="284.4656" y2="259.7817" xlink:href="#linear-gradient-12"/><linearGradient id="linear-gradient-38" x1="123.737" y1="52.9348" x2="123.737" y2="19.0458" xlink:href="#linear-gradient-18"/><linearGradient id="linear-gradient-39" x1="123.73" y1="49.2955" x2="123.73" y2="26.6964" xlink:href="#linear-gradient-19"/><linearGradient id="linear-gradient-40" x1="191.2913" y1="264.2815" x2="116.1789" y2="41.047" gradientUnits="userSpaceOnUse"><stop offset="0" stop-color="#a34001"/><stop offset="0.4984" stop-color="#ff7e17"/><stop offset="0.535" stop-color="#ff8729"/><stop offset="0.6088" stop-color="#ff9d58"/><stop offset="0.7072" stop-color="#ffc0a0"/><stop offset="0.723" stop-color="#ffb288"/><stop offset="0.7483" stop-color="#ff9f69"/><stop offset="0.7748" stop-color="#ff9051"/><stop offset="0.8026" stop-color="#ff8540"/><stop offset="0.8325" stop-color="#ff7f35"/><stop offset="0.8684" stop-color="#ff7d32"/><stop offset="0.9038" stop-color="#ff8c3b"/><stop offset="0.9721" stop-color="#ffb553"/><stop offset="1" stop-color="#ffc75e"/></linearGradient><linearGradient id="linear-gradient-41" x1="201.0059" y1="104.5176" x2="105.6792" y2="200.191" gradientUnits="userSpaceOnUse"><stop offset="0" stop-color="#f3edc2"/><stop offset="0.1534" stop-color="#f1e8bc"/><stop offset="0.3657" stop-color="#edd9aa"/><stop offset="0.6123" stop-color="#e5c18c"/><stop offset="0.8829" stop-color="#dba064"/><stop offset="1" stop-color="#d69050"/></linearGradient><linearGradient id="linear-gradient-42" x1="93.0487" y1="97.9329" x2="198.3075" y2="203.1917" gradientUnits="userSpaceOnUse"><stop offset="0" stop-color="#ffe6af"/><stop offset="0.0402" stop-color="#ffe5b2"/><stop offset="0.3295" stop-color="#ffdec1"/><stop offset="0.565" stop-color="#ffdcc6"/><stop offset="1" stop-color="#ffa166"/></linearGradient><linearGradient id="linear-gradient-43" x1="190.3714" y1="-15.4028" x2="194.2835" y2="-15.4028" gradientTransform="matrix(1, -0.2225, 0, -1, 0.0001, 142.3744)" gradientUnits="userSpaceOnUse"><stop offset="0" stop-color="#ff7243"/><stop offset="1" stop-color="#ffa637"/></linearGradient><linearGradient id="linear-gradient-44" x1="188.2255" y1="119.5516" x2="197.1275" y2="110.6496" gradientUnits="userSpaceOnUse"><stop offset="0" stop-color="#ff9d4d"/><stop offset="1" stop-color="#ffb261"/></linearGradient><linearGradient id="linear-gradient-45" x1="150.0997" y1="221.1065" x2="150.0997" y2="144.3006" xlink:href="#linear-gradient"/><linearGradient id="linear-gradient-46" x1="150.0729" y1="195.9898" x2="150.0729" y2="152.0636" xlink:href="#linear-gradient-2"/><linearGradient id="linear-gradient-47" x1="150.0729" y1="236.9363" x2="150.0729" y2="193.0101" xlink:href="#linear-gradient-2"/><linearGradient id="linear-gradient-48" x1="150.0729" y1="213.2814" x2="150.0729" y2="169.2982" xlink:href="#linear-gradient-6"/><linearGradient id="linear-gradient-49" x1="150.0997" y1="172.7634" x2="150.0997" y2="70.4411" xlink:href="#linear-gradient-10"/><linearGradient id="linear-gradient-50" x1="150.0729" y1="163.3641" x2="150.0729" y2="127.9659" xlink:href="#linear-gradient-11"/><linearGradient id="linear-gradient-51" x1="132.9649" y1="139.0547" x2="132.9649" y2="131.8825" xlink:href="#linear-gradient-12"/><linearGradient id="linear-gradient-52" x1="141.4938" y1="144.0275" x2="141.4938" y2="136.8502" xlink:href="#linear-gradient-12"/><linearGradient id="linear-gradient-53" x1="150.0325" y1="149.006" x2="150.0325" y2="141.8236" xlink:href="#linear-gradient-12"/><linearGradient id="linear-gradient-54" x1="158.5808" y1="153.9901" x2="158.5808" y2="146.8026" xlink:href="#linear-gradient-12"/><linearGradient id="linear-gradient-55" x1="167.1388" y1="158.9799" x2="167.1388" y2="151.7873" xlink:href="#linear-gradient-12"/><linearGradient id="linear-gradient-56" x1="150.0721" y1="135.6943" x2="150.0721" y2="83.273" xlink:href="#linear-gradient-17"/><linearGradient id="linear-gradient-57" x1="150.0398" y1="139.8291" x2="150.0398" y2="114.4373" xlink:href="#linear-gradient-18"/><linearGradient id="linear-gradient-58" x1="150.0345" y1="137.1024" x2="150.0345" y2="120.1696" xlink:href="#linear-gradient-19"/><linearGradient id="linear-gradient-59" x1="107.2028" y1="222.5974" x2="107.2028" y2="127.9188" gradientUnits="userSpaceOnUse"><stop offset="0" stop-color="#ff7f5a"/><stop offset="1" stop-color="#ffedcc"/></linearGradient><linearGradient id="linear-gradient-60" x1="107.1696" y1="191.6361" x2="107.1696" y2="137.4882" xlink:href="#linear-gradient-2"/><linearGradient id="linear-gradient-61" x1="107.1696" y1="212.9515" x2="107.1696" y2="158.7333" xlink:href="#linear-gradient-6"/><linearGradient id="linear-gradient-62" x1="85.6042" y1="159.644" x2="85.6042" y2="33.5113" xlink:href="#linear-gradient-10"/><linearGradient id="linear-gradient-63" x1="85.5711" y1="148.0575" x2="85.5711" y2="104.4221" xlink:href="#linear-gradient-11"/><linearGradient id="linear-gradient-64" x1="64.4821" y1="118.0913" x2="64.4821" y2="109.2501" xlink:href="#linear-gradient-12"/><linearGradient id="linear-gradient-65" x1="74.9957" y1="124.2213" x2="74.9957" y2="115.3738" xlink:href="#linear-gradient-12"/><linearGradient id="linear-gradient-66" x1="85.5213" y1="130.3582" x2="85.5213" y2="121.5045" xlink:href="#linear-gradient-12"/><linearGradient id="linear-gradient-67" x1="96.0587" y1="136.5021" x2="96.0587" y2="127.6421" xlink:href="#linear-gradient-12"/><linearGradient id="linear-gradient-68" x1="106.6083" y1="142.6531" x2="106.6083" y2="133.7867" xlink:href="#linear-gradient-12"/><linearGradient id="linear-gradient-69" x1="85.5701" y1="113.9489" x2="85.5701" y2="49.3292" xlink:href="#linear-gradient-17"/><linearGradient id="linear-gradient-70" x1="85.5303" y1="119.046" x2="85.5303" y2="87.7454" xlink:href="#linear-gradient-18"/><linearGradient id="linear-gradient-71" x1="85.5237" y1="115.6846" x2="85.5237" y2="94.8116" xlink:href="#linear-gradient-19"/><linearGradient id="linear-gradient-72" x1="207.3369" y1="209.8605" x2="207.3369" y2="161.7203" xlink:href="#linear-gradient-11"/><linearGradient id="linear-gradient-73" x1="184.0708" y1="176.8007" x2="184.0708" y2="167.0468" xlink:href="#linear-gradient-12"/><linearGradient id="linear-gradient-74" x1="195.6699" y1="183.5634" x2="195.6699" y2="173.8026" xlink:href="#linear-gradient-12"/><linearGradient id="linear-gradient-75" x1="207.282" y1="190.334" x2="207.282" y2="180.5662" xlink:href="#linear-gradient-12"/><linearGradient id="linear-gradient-76" x1="218.9073" y1="197.1122" x2="218.9073" y2="187.3375" xlink:href="#linear-gradient-12"/><linearGradient id="linear-gradient-77" x1="230.5459" y1="203.8981" x2="230.5459" y2="194.1164" xlink:href="#linear-gradient-12"/><linearGradient id="linear-gradient-78" x1="203.6387" y1="249.9879" x2="203.6387" y2="190.2501" xlink:href="#linear-gradient-2"/><linearGradient id="linear-gradient-79" x1="234.4724" y1="186.9641" x2="234.4724" y2="127.2262" xlink:href="#linear-gradient-2"/><linearGradient id="linear-gradient-80" x1="210.2326" y1="278.6306" x2="210.2326" y2="218.8152" xlink:href="#linear-gradient-6"/><linearGradient id="linear-gradient-81" x1="77.7757" y1="234.7598" x2="77.7757" y2="174.9443" xlink:href="#linear-gradient-6"/><linearGradient id="linear-gradient-82" x1="172.5416" y1="159.1387" x2="172.5416" y2="124.6069" xlink:href="#linear-gradient-18"/><linearGradient id="linear-gradient-83" x1="172.5344" y1="155.4304" x2="172.5344" y2="132.4025" xlink:href="#linear-gradient-19"/><linearGradient id="linear-gradient-84" x1="97.0294" y1="255.7871" x2="97.0294" y2="221.2552" xlink:href="#linear-gradient-11"/><linearGradient id="linear-gradient-85" x1="97.0222" y1="252.0787" x2="97.0222" y2="229.0509" xlink:href="#linear-gradient-6"/><linearGradient id="linear-gradient-86" x1="23.4939" y1="167.7369" x2="23.4939" y2="134.2758" xlink:href="#linear-gradient-11"/><linearGradient id="linear-gradient-87" x1="7.3221" y1="144.7578" x2="7.3221" y2="137.978" xlink:href="#linear-gradient-12"/><linearGradient id="linear-gradient-88" x1="15.3843" y1="149.4585" x2="15.3843" y2="142.6739" xlink:href="#linear-gradient-12"/><linearGradient id="linear-gradient-89" x1="23.4557" y1="154.1645" x2="23.4557" y2="147.3751" xlink:href="#linear-gradient-12"/><linearGradient id="linear-gradient-90" x1="31.5363" y1="158.8759" x2="31.5363" y2="152.0817" xlink:href="#linear-gradient-12"/><linearGradient id="linear-gradient-91" x1="39.626" y1="163.5926" x2="39.626" y2="156.7936" xlink:href="#linear-gradient-12"/><linearGradient id="linear-gradient-92" x1="23.4931" y1="141.5812" x2="23.4931" y2="92.0285" xlink:href="#linear-gradient-17"/><linearGradient id="linear-gradient-93" x1="23.4626" y1="145.4898" x2="23.4626" y2="121.4875" xlink:href="#linear-gradient-18"/><linearGradient id="linear-gradient-94" x1="23.4576" y1="142.9122" x2="23.4576" y2="126.9061" xlink:href="#linear-gradient-19"/><linearGradient id="linear-gradient-95" x1="39.3768" y1="187.4815" x2="39.3768" y2="152.9496" xlink:href="#linear-gradient"/><linearGradient id="linear-gradient-96" x1="39.3696" y1="183.7731" x2="39.3696" y2="160.7453" xlink:href="#linear-gradient-18"/></defs><g style="isolation:isolate"><g id="Layer_2" data-name="Layer 2"><g id="OBJECTS"><g style="opacity:0.75;mix-blend-mode:soft-light"><polygon points="291.168 226.475 205.815 176.449 205.815 123.967 291.168 173.77 291.168 226.475" style="fill:url(#linear-gradient)"/><polygon points="281.627 192.954 215.284 154.162 215.284 134.328 281.627 173.054 281.627 192.954" style="fill:url(#linear-gradient-2)"/><path d="M234.81,151.6417l-13.716-8.0106a1.86,1.86,0,0,1-.8881-1.41c0-.4923.3978-.6589.8881-.3726l13.716,8.0093a1.8622,1.8622,0,0,1,.8893,1.4112C235.6991,151.7619,235.3008,151.9284,234.81,151.6417Zm41.4828,29.1523a1.2456,1.2456,0,0,0-.5953-.9436l-54.6035-31.902c-.3273-.1912-.5921-.08-.5921.2482a1.24,1.24,0,0,0,.5921.94l54.6035,31.9052C276.0263,181.2342,276.2926,181.123,276.2926,180.794Zm-8.8319-1.156a1.2445,1.2445,0,0,0-.5948-.9431l-45.7721-26.7514c-.3273-.1913-.5921-.08-.5921.2481a1.24,1.24,0,0,0,.5921.94l45.7721,26.7541C267.1947,180.078,267.4607,179.9669,267.4607,179.638Z" style="fill:#fff0e0"/><polygon points="281.627 247.603 215.284 208.81 215.284 188.977 281.627 227.703 281.627 247.603" style="fill:url(#linear-gradient-3)"/><path d="M234.81,206.2905l-13.716-8.0106a1.86,1.86,0,0,1-.8881-1.41c0-.4923.3978-.6589.8881-.3726l13.716,8.0094a1.8618,1.8618,0,0,1,.8893,1.4112C235.6991,206.4108,235.3008,206.5773,234.81,206.2905Zm41.4828,29.1524a1.2454,1.2454,0,0,0-.5953-.9436l-54.6035-31.902c-.3273-.1912-.5921-.08-.5921.2482a1.24,1.24,0,0,0,.5921.94l54.6035,31.9052C276.0263,235.8831,276.2926,235.7719,276.2926,235.4429Zm-8.8319-1.156a1.2448,1.2448,0,0,0-.5948-.9432l-45.7721-26.7514c-.3273-.1912-.5921-.08-.5921.2481a1.24,1.24,0,0,0,.5921.94l45.7721,26.7541C267.1947,234.7269,267.4607,234.6157,267.4607,234.2869Z" style="fill:#fff0e0"/><polygon points="104.585 59.501 38.243 20.709 38.243 0.875 104.585 39.601 104.585 59.501" style="fill:url(#linear-gradient-4)"/><path d="M57.7681,18.1886,44.0521,10.178a1.86,1.86,0,0,1-.888-1.41c0-.4923.3977-.6589.888-.3726l13.716,8.0094a1.862,1.862,0,0,1,.8894,1.4111C58.6575,18.3088,58.2591,18.4753,57.7681,18.1886ZM99.2509,47.3409a1.2453,1.2453,0,0,0-.5953-.9436L44.0521,14.4953c-.3272-.1912-.592-.08-.592.2483a1.24,1.24,0,0,0,.592.94L98.6556,47.5889C98.9847,47.7811,99.2509,47.67,99.2509,47.3409Zm-8.8319-1.156a1.2447,1.2447,0,0,0-.5948-.9431L44.0521,18.49c-.3272-.1913-.592-.08-.592.2481a1.24,1.24,0,0,0,.592.94L89.8242,46.4328C90.153,46.6249,90.419,46.5138,90.419,46.1849Z" style="fill:#fff0e0"/><polygon points="111.03 192.954 44.688 154.162 44.688 134.328 111.03 173.054 111.03 192.954" style="fill:url(#linear-gradient-5)"/><path d="M64.2133,151.6417l-13.716-8.0106a1.86,1.86,0,0,1-.888-1.41c0-.4923.3977-.6589.888-.3726l13.716,8.0093a1.8623,1.8623,0,0,1,.8894,1.4112C65.1027,151.7619,64.7043,151.9284,64.2133,151.6417Zm41.4828,29.1523a1.2453,1.2453,0,0,0-.5953-.9436l-54.6035-31.902c-.3272-.1912-.592-.08-.592.2482a1.24,1.24,0,0,0,.592.94l54.6035,31.9052C105.43,181.2342,105.6961,181.123,105.6961,180.794Zm-8.8319-1.156a1.2445,1.2445,0,0,0-.5948-.9431L50.4973,151.9435c-.3272-.1913-.592-.08-.592.2481a1.24,1.24,0,0,0,.592.94l45.7721,26.7541C96.5982,180.078,96.8642,179.9669,96.8642,179.638Z" style="fill:#fff0e0"/><polygon points="281.627 216.032 215.284 177.164 215.284 157.33 281.627 196.133 281.627 216.032" style="fill:url(#linear-gradient-6)"/><path d="M234.81,174.6661l-13.716-8.0263a1.8629,1.8629,0,0,1-.8881-1.4109c0-.4923.3978-.6584.8881-.3716l13.716,8.0252a1.8644,1.8644,0,0,1,.8893,1.4122C235.6991,174.7873,235.3008,174.9534,234.81,174.6661Zm41.4828,29.2a1.2473,1.2473,0,0,0-.5953-.9443l-54.6035-31.9646c-.3273-.1916-.5921-.0806-.5921.2475a1.2417,1.2417,0,0,0,.5921.9408l54.6035,31.9678C276.0263,204.3059,276.2926,204.195,276.2926,203.866ZM267.4607,202.7a1.2467,1.2467,0,0,0-.5948-.9439l-45.7721-26.8038c-.3273-.1917-.5921-.0807-.5921.2474a1.2417,1.2417,0,0,0,.5921.9408l45.7721,26.8066C267.1947,203.14,267.4607,203.0287,267.4607,202.7Z" style="fill:#ff8b27"/><polygon points="153.843 175.086 68.49 125.059 68.49 72.577 153.843 122.381 153.843 175.086" style="fill:url(#linear-gradient-7)"/><polygon points="144.302 141.564 77.959 102.772 77.959 82.938 144.302 121.665 144.302 141.564" style="fill:url(#linear-gradient-8)"/><path d="M97.4847,100.252l-13.716-8.0106a1.86,1.86,0,0,1-.888-1.41c0-.4923.3977-.6589.888-.3726l13.716,8.0093a1.8623,1.8623,0,0,1,.8894,1.4112C98.3741,100.3722,97.9757,100.5387,97.4847,100.252Zm41.4829,29.1523a1.2455,1.2455,0,0,0-.5954-.9436L83.7687,96.5587c-.3272-.1912-.592-.08-.592.2482a1.24,1.24,0,0,0,.592.94l54.6035,31.9052C138.7013,129.8445,138.9676,129.7333,138.9676,129.4043Zm-8.8319-1.156a1.2448,1.2448,0,0,0-.5948-.9431L83.7687,100.5538c-.3272-.1913-.592-.08-.592.2481a1.24,1.24,0,0,0,.592.94l45.7722,26.7541C129.87,128.6883,130.1357,128.5772,130.1357,128.2483Z" style="fill:#fff0e0"/><polygon points="144.302 164.642 77.959 125.774 77.959 105.94 144.302 144.743 144.302 164.642" style="fill:url(#linear-gradient-9)"/><path d="M97.4847,123.2764,83.7687,115.25a1.8627,1.8627,0,0,1-.888-1.4109c0-.4923.3977-.6584.888-.3716l13.716,8.0252a1.8645,1.8645,0,0,1,.8894,1.4122C98.3741,123.3976,97.9757,123.5637,97.4847,123.2764Zm41.4829,29.2a1.2473,1.2473,0,0,0-.5954-.9443L83.7687,119.5674c-.3272-.1916-.592-.0806-.592.2475a1.2419,1.2419,0,0,0,.592.9408l54.6035,31.9678C138.7013,152.9162,138.9676,152.8053,138.9676,152.4763Zm-8.8319-1.1661a1.247,1.247,0,0,0-.5948-.9439L83.7687,123.5625c-.3272-.1917-.592-.0807-.592.2474a1.2419,1.2419,0,0,0,.592.9408l45.7722,26.8066C129.87,151.75,130.1357,151.639,130.1357,151.31Z" style="fill:#ff8b27"/><polygon points="278.376 160.772 193.023 110.983 193.023 24.209 278.376 73.628 278.376 160.772" style="fill:url(#linear-gradient-10)"/><path d="M215.7693,43.5219l-13.2769-7.6914a1.8482,1.8482,0,0,1-.8876-1.4051c0-.4921.3976-.6606.8876-.3768l13.2769,7.69a1.85,1.85,0,0,1,.8888,1.4064C216.6581,43.6378,216.26,43.8062,215.7693,43.5219Z" style="fill:#ff853e"/><path d="M263.81,70.4549c0,.494-.4.6627-.8938.3767a1.8587,1.8587,0,0,1-.8938-1.4122c0-.494.4-.6627.8938-.3768A1.8591,1.8591,0,0,1,263.81,70.4549Zm1.6179.0426c-.4937-.286-.894-.1173-.894.3767a1.8594,1.8594,0,0,0,.894,1.4125c.4938.286.8941.1174.8941-.3767A1.8591,1.8591,0,0,0,265.4277,70.4975Zm2.5124,1.4552c-.4939-.2861-.8942-.1174-.8942.3767a1.8594,1.8594,0,0,0,.8942,1.4127c.4939.2861.8943.1175.8943-.3767A1.8592,1.8592,0,0,0,267.94,71.9527Z" style="fill:#ff853e"/><path d="M261.3719,147.0511,209.911,117.0423c-4.098-2.39-7.4189-7.6591-7.4189-11.77h0c0-4.1113,3.3209-5.51,7.4189-3.1234l51.4609,29.9707c4.1207,2.4,7.4625,7.69,7.4625,11.8149h0C268.8344,148.0589,265.4926,149.4541,261.3719,147.0511Z" style="fill:url(#linear-gradient-11)"/><path d="M216.9548,113.4007c0,2.2858-1.8472,3.062-4.1253,1.7339s-4.1237-4.2561-4.1237-6.541,1.846-3.0617,4.1237-1.7349S216.9548,111.1149,216.9548,113.4007Z" style="fill:url(#linear-gradient-12)"/><polygon points="212.83 108.631 213.438 110.578 215.136 111.656 213.814 111.958 214.255 113.864 212.83 112.102 211.404 112.202 211.845 110.811 210.523 108.968 212.221 109.87 212.83 108.631" style="fill:#ff8b27"/><path d="M228.3425,120.037c0,2.2871-1.8493,3.0631-4.13,1.7335s-4.1283-4.26-4.1283-6.5461,1.8481-3.0629,4.1283-1.7345S228.3425,117.75,228.3425,120.037Z" style="fill:url(#linear-gradient-13)"/><polygon points="224.213 115.263 224.822 117.212 226.522 118.291 225.198 118.593 225.64 120.499 224.213 118.736 222.785 118.835 223.227 117.444 221.904 115.6 223.604 116.502 224.213 115.263" style="fill:#ff8b27"/><path d="M239.7432,126.6808c0,2.2883-1.8514,3.0642-4.1347,1.7331s-4.133-4.2637-4.133-6.5512,1.85-3.064,4.133-1.7341S239.7432,124.3924,239.7432,126.6808Z" style="fill:url(#linear-gradient-14)"/><polygon points="235.609 121.903 236.218 123.853 237.921 124.933 236.595 125.235 237.037 127.142 235.609 125.378 234.18 125.477 234.622 124.085 233.297 122.239 234.999 123.142 235.609 121.903" style="fill:#ff8b27"/><path d="M251.1568,133.3321c0,2.29-1.8535,3.0653-4.1394,1.7327s-4.1377-4.2675-4.1377-6.5562,1.8523-3.0651,4.1377-1.7338S251.1568,131.0424,251.1568,133.3321Z" style="fill:url(#linear-gradient-15)"/><polygon points="247.017 128.55 247.628 130.502 249.332 131.583 248.005 131.884 248.448 133.793 247.017 132.027 245.587 132.126 246.03 130.733 244.703 128.885 246.407 129.79 247.017 128.55" style="fill:#ff8b27"/><path d="M262.5834,139.991c0,2.291-1.8556,3.0665-4.1441,1.7323s-4.1424-4.2713-4.1424-6.5613,1.8544-3.0663,4.1424-1.7334S262.5834,137.7,262.5834,139.991Z" style="fill:url(#linear-gradient-16)"/><polygon points="258.439 135.205 259.05 137.158 260.757 138.24 259.428 138.541 259.872 140.451 258.439 138.684 257.007 138.782 257.451 137.389 256.122 135.54 257.828 136.446 258.439 135.205" style="fill:#ff8b27"/><path d="M235.6085,106.14h0c-18.1264-10.5469-32.7968-33.7977-32.7968-51.9494V41.3348l65.701,38.0784V92.3116C268.5127,110.5227,253.7677,116.7064,235.6085,106.14Z" style="fill:url(#linear-gradient-17)"/><path d="M250.2412,108.3756c0,8.0986-6.5539,10.8477-14.6327,6.1437-8.0723-4.7-14.6114-15.0635-14.6114-23.15s6.5391-10.8446,14.6114-6.1561C243.6873,89.9051,250.2412,100.277,250.2412,108.3756Z" style="fill:url(#linear-gradient-18)"/><path d="M231.4116,93.0021c0-2.3227,1.8787-3.1138,4.1965-1.7669s4.1983,4.3233,4.1983,6.6469-1.88,3.1141-4.1983,1.7658S231.4116,95.3247,231.4116,93.0021Zm4.2044,18.1763c3.2224,1.8758,6.16,2.3834,8.4115,1.7244-.3954-4.5437-4.0126-10.0266-8.4194-12.5894-4.4-2.559-8.0106-1.2893-8.4116,2.7811A27.1482,27.1482,0,0,0,235.616,111.1784Z" style="fill:url(#linear-gradient-19)"/><path d="M254.8764,83.7269,216.3775,61.3906a3.0864,3.0864,0,0,1-1.4813-2.3452c0-.8207.6631-1.1012,1.4813-.6267l38.4989,22.3306a3.0958,3.0958,0,0,1,1.4871,2.3515C256.3635,83.9232,255.6978,84.2034,254.8764,83.7269Z" style="fill:#fff0e0"/><path d="M239.3713,79.9243,220.0561,68.713a1.2351,1.2351,0,0,1-.5927-.9385c0-.3283.2651-.4406.5927-.2505l19.3152,11.21a1.2371,1.2371,0,0,1,.5939.94C239.9652,80.0025,239.7,80.1148,239.3713,79.9243Z" style="fill:#fff0e0"/><path d="M251.185,86.7814l-7.301-4.2378a1.2374,1.2374,0,0,1-.5941-.94c0-.3287.2657-.441.5941-.25l7.301,4.2373a1.2385,1.2385,0,0,1,.5946.9406C251.78,86.86,251.5136,86.9721,251.185,86.7814Z" style="fill:#fff0e0"/><path d="M178.5065,46.0675,127.0457,16.0586c-4.098-2.39-7.4189-7.6591-7.4189-11.77h0c0-4.1113,3.3209-5.51,7.4189-3.1235l51.4608,29.9707c4.1208,2.4,7.4625,7.69,7.4625,11.8149h0C185.969,47.0752,182.6273,48.47,178.5065,46.0675Z" style="fill:url(#linear-gradient-20)"/><path d="M134.0894,12.417c0,2.2858-1.8471,3.062-4.1253,1.7339s-4.1236-4.2561-4.1236-6.541,1.846-3.0617,4.1236-1.7349S134.0894,10.1312,134.0894,12.417Z" style="fill:url(#linear-gradient-21)"/><polygon points="129.964 7.647 130.572 9.595 132.271 10.673 130.948 10.975 131.39 12.88 129.964 11.119 128.539 11.218 128.98 9.828 127.658 7.984 129.356 8.886 129.964 7.647" style="fill:#ff8b27"/><path d="M145.4772,19.0533c0,2.2871-1.8493,3.0631-4.13,1.7335s-4.1284-4.26-4.1284-6.5461,1.8481-3.0628,4.1284-1.7345S145.4772,16.7662,145.4772,19.0533Z" style="fill:url(#linear-gradient-22)"/><polygon points="141.347 14.279 141.956 16.228 143.657 17.307 142.333 17.609 142.775 19.516 141.347 17.753 139.92 17.852 140.362 16.461 139.038 14.616 140.738 15.519 141.347 14.279" style="fill:#ff8b27"/><path d="M156.8779,25.6971c0,2.2884-1.8514,3.0642-4.1348,1.7331s-4.133-4.2637-4.133-6.5512,1.85-3.064,4.133-1.7341S156.8779,23.4087,156.8779,25.6971Z" style="fill:url(#linear-gradient-23)"/><polygon points="152.743 20.919 153.353 22.869 155.055 23.95 153.73 24.251 154.172 26.159 152.743 24.394 151.314 24.493 151.757 23.101 150.432 21.255 152.134 22.159 152.743 20.919" style="fill:#ff8b27"/><path d="M168.2915,32.3484c0,2.29-1.8535,3.0654-4.1394,1.7328s-4.1377-4.2676-4.1377-6.5563,1.8523-3.0651,4.1377-1.7338S168.2915,30.0587,168.2915,32.3484Z" style="fill:url(#linear-gradient-24)"/><polygon points="164.152 27.566 164.762 29.518 166.467 30.599 165.14 30.901 165.583 32.809 164.152 31.044 162.722 31.142 163.165 29.749 161.838 27.902 163.542 28.807 164.152 27.566" style="fill:#ff8b27"/><path d="M179.7181,39.0073c0,2.291-1.8556,3.0665-4.1441,1.7324s-4.1425-4.2714-4.1425-6.5614,1.8545-3.0662,4.1425-1.7334S179.7181,36.7163,179.7181,39.0073Z" style="fill:url(#linear-gradient-25)"/><polygon points="175.574 34.221 176.185 36.174 177.891 37.257 176.563 37.558 177.006 39.468 175.574 37.7 174.142 37.798 174.585 36.405 173.257 34.556 174.963 35.462 175.574 34.221" style="fill:#ff8b27"/><path d="M68.8727,223.0905,17.4118,193.0816c-4.098-2.39-7.4189-7.6591-7.4189-11.77h0c0-4.1113,3.3209-5.51,7.4189-3.1234l51.4609,29.9707c4.1207,2.4,7.4625,7.69,7.4625,11.8149h0C76.3352,224.0983,72.9934,225.4935,68.8727,223.0905Z" style="fill:url(#linear-gradient-26)"/><path d="M24.4556,189.44c0,2.2858-1.8472,3.062-4.1254,1.7339s-4.1236-4.2562-4.1236-6.541,1.846-3.0617,4.1236-1.7349S24.4556,187.1543,24.4556,189.44Z" style="fill:url(#linear-gradient-27)"/><polygon points="20.33 184.67 20.939 186.618 22.637 187.696 21.315 187.998 21.756 189.903 20.33 188.142 18.905 188.241 19.346 186.851 18.024 185.007 19.722 185.909 20.33 184.67" style="fill:#ff8b27"/><path d="M35.8433,196.0764c0,2.2871-1.8493,3.0631-4.13,1.7335s-4.1283-4.26-4.1283-6.5461,1.8481-3.0629,4.1283-1.7345S35.8433,193.7893,35.8433,196.0764Z" style="fill:url(#linear-gradient-28)"/><polygon points="31.713 191.302 32.322 193.251 34.023 194.33 32.699 194.632 33.141 196.539 31.713 194.776 30.286 194.875 30.728 193.484 29.404 191.639 31.104 192.542 31.713 191.302" style="fill:#ff8b27"/><path d="M47.244,202.72c0,2.2884-1.8514,3.0643-4.1347,1.7332s-4.133-4.2637-4.133-6.5512,1.85-3.064,4.133-1.7341S47.244,200.4317,47.244,202.72Z" style="fill:url(#linear-gradient-29)"/><polygon points="43.109 197.942 43.719 199.892 45.422 200.973 44.096 201.274 44.538 203.182 43.109 201.417 41.681 201.516 42.123 200.124 40.798 198.278 42.5 199.182 43.109 197.942" style="fill:#ff8b27"/><path d="M58.6576,209.3715c0,2.29-1.8535,3.0653-4.1394,1.7327s-4.1377-4.2675-4.1377-6.5563,1.8523-3.0651,4.1377-1.7337S58.6576,207.0818,58.6576,209.3715Z" style="fill:url(#linear-gradient-30)"/><polygon points="54.518 204.589 55.129 206.541 56.833 207.622 55.506 207.924 55.949 209.832 54.518 208.067 53.088 208.165 53.531 206.773 52.204 204.925 53.908 205.83 54.518 204.589" style="fill:#ff8b27"/><path d="M70.0842,216.03c0,2.291-1.8556,3.0664-4.1441,1.7323s-4.1424-4.2713-4.1424-6.5613,1.8544-3.0663,4.1424-1.7334S70.0842,213.7394,70.0842,216.03Z" style="fill:url(#linear-gradient-31)"/><polygon points="65.94 211.244 66.551 213.197 68.258 214.28 66.929 214.581 67.372 216.491 65.94 214.723 64.508 214.821 64.951 213.428 63.623 211.579 65.329 212.485 65.94 211.244" style="fill:#ff8b27"/><path d="M287.3974,274.0562l-51.4609-30.0088c-4.098-2.39-7.4188-7.6591-7.4188-11.77h0c0-4.1113,3.3208-5.51,7.4188-3.1234l51.4609,29.9707c4.1207,2.4,7.4625,7.69,7.4625,11.8149h0C294.86,275.064,291.5181,276.4592,287.3974,274.0562Z" style="fill:url(#linear-gradient-32)"/><path d="M242.98,240.4058c0,2.2858-1.8472,3.062-4.1253,1.7339s-4.1237-4.2561-4.1237-6.541,1.846-3.0617,4.1237-1.7349S242.98,238.12,242.98,240.4058Z" style="fill:url(#linear-gradient-33)"/><polygon points="238.855 235.636 239.463 237.584 241.162 238.661 239.839 238.964 240.281 240.869 238.855 239.107 237.43 239.207 237.871 237.816 236.549 235.973 238.247 236.875 238.855 235.636" style="fill:#ff8b27"/><path d="M254.3681,247.0421c0,2.2871-1.8493,3.0631-4.13,1.7335s-4.1283-4.26-4.1283-6.5461,1.8481-3.0629,4.1283-1.7345S254.3681,244.755,254.3681,247.0421Z" style="fill:url(#linear-gradient-34)"/><polygon points="250.238 242.268 250.847 244.217 252.548 245.296 251.223 245.598 251.665 247.504 250.238 245.742 248.811 245.841 249.253 244.449 247.929 242.605 249.629 243.507 250.238 242.268" style="fill:#ff8b27"/><path d="M265.7687,253.6859c0,2.2884-1.8514,3.0642-4.1347,1.7331s-4.133-4.2637-4.133-6.5512,1.85-3.064,4.133-1.7341S265.7687,251.3975,265.7687,253.6859Z" style="fill:url(#linear-gradient-35)"/><polygon points="261.634 248.908 262.244 250.858 263.946 251.938 262.621 252.24 263.063 254.147 261.634 252.383 260.205 252.482 260.648 251.09 259.322 249.244 261.024 250.148 261.634 248.908" style="fill:#ff8b27"/><path d="M277.1823,260.3372c0,2.29-1.8534,3.0653-4.1394,1.7327s-4.1377-4.2675-4.1377-6.5562,1.8523-3.0651,4.1377-1.7338S277.1823,258.0475,277.1823,260.3372Z" style="fill:url(#linear-gradient-36)"/><polygon points="273.043 255.555 273.653 257.507 275.358 258.588 274.031 258.889 274.474 260.798 273.043 259.032 271.613 259.131 272.055 257.738 270.729 255.891 272.433 256.795 273.043 255.555" style="fill:#ff8b27"/><path d="M288.6089,266.9961c0,2.291-1.8556,3.0665-4.1441,1.7323s-4.1424-4.2713-4.1424-6.5613,1.8544-3.0663,4.1424-1.7334S288.6089,264.7051,288.6089,266.9961Z" style="fill:url(#linear-gradient-37)"/><polygon points="284.465 262.21 285.076 264.163 286.782 265.245 285.454 265.546 285.897 267.456 284.465 265.689 283.033 265.787 283.476 264.394 282.148 262.545 283.854 263.451 284.465 262.21" style="fill:#ff8b27"/><path d="M138.3591,44.4935c0,8.0987-6.5539,10.8477-14.6327,6.1437-8.0723-4.7-14.6114-15.0634-14.6114-23.15s6.5391-10.8445,14.6114-6.156C131.8052,26.0231,138.3591,36.3949,138.3591,44.4935Z" style="fill:url(#linear-gradient-38)"/><path d="M119.53,29.12c0-2.3226,1.8786-3.1138,4.1965-1.7668s4.1983,4.3233,4.1983,6.6469-1.88,3.114-4.1983,1.7658S119.53,31.4426,119.53,29.12Zm4.2043,18.1763c3.2225,1.8758,6.16,2.3835,8.4115,1.7244-.3953-4.5437-4.0126-10.0266-8.4193-12.5893-4.4-2.559-8.0106-1.2893-8.4116,2.7811A27.1487,27.1487,0,0,0,123.7339,47.2963Z" style="fill:url(#linear-gradient-39)"/></g><path d="M195.8134,253.8378l-.0011-160.9163a13.7891,13.7891,0,0,0-6.8923-11.94L125.882,44.57a4.4574,4.4574,0,0,0-4.6735.1128l-.0054-.0041-6.6751,3.836c-.076.041-.1505.0836-.2241.1288l-.1041.06.0058.0054a4.4449,4.4449,0,0,0-2.0485,3.7646l.0017,161.4578a13.5752,13.5752,0,0,0,6.7855,11.755l62.7841,36.2628a4.69,4.69,0,0,0,4.653.045l-.0008.004.0458-.0264c.0278-.0156.0554-.0313.0829-.0476l6.8793-3.9506-.0009-.0017A4.6958,4.6958,0,0,0,195.8134,253.8378Z" style="fill:url(#linear-gradient-40)"/><path d="M181.7284,261.949l-62.7841-36.2628a13.575,13.575,0,0,1-6.7855-11.755l-.0017-161.4578a4.502,4.502,0,0,1,6.7538-3.8985l63.0379,36.4109a13.7893,13.7893,0,0,1,6.8924,11.9405l.001,160.9163A4.7421,4.7421,0,0,1,181.7284,261.949Z" style="fill:#c5b0a4;opacity:0.52;mix-blend-mode:screen"/><path d="M184.0928,261.086a3.1859,3.1859,0,0,1-1.6113-.441l-62.7838-36.2629a12.1025,12.1025,0,0,1-6.0328-10.4507l-.0016-161.458a3.0094,3.0094,0,0,1,3.0027-3.003,2.9492,2.9492,0,0,1,1.4915.4083L181.1954,86.29a12.3177,12.3177,0,0,1,6.14,10.6364l.0011,160.9164A3.2509,3.2509,0,0,1,184.0928,261.086Z" style="fill:#cd6253"/><path d="M184.0928,259.58a1.6762,1.6762,0,0,1-.8581-.2387L120.451,223.0779a10.5924,10.5924,0,0,1-5.28-9.1465l-.0016-161.458a1.5054,1.5054,0,0,1,1.4967-1.4972,1.4444,1.4444,0,0,1,.7382.2062l12.9916,7.5041a5.3581,5.3581,0,0,1,2.6782,4.6375l.0011,2.4881a4.5229,4.5229,0,0,0,2.2611,3.9147L164.6326,86.645a2.1973,2.1973,0,0,0,3.2961-1.9038h0a2.5249,2.5249,0,0,1,3.7877-2.1876l8.7258,5.04a10.8079,10.8079,0,0,1,5.3869,9.3325l.0011,160.9164A1.7471,1.7471,0,0,1,184.0928,259.58Z" style="fill:url(#linear-gradient-41)"/><path d="M184.0928,258.8272a.9332.9332,0,0,1-.4814-.138l-62.7838-36.2634a9.8366,9.8366,0,0,1-4.904-8.4944l-.0016-161.458a.7606.7606,0,0,1,.744-.7442.6953.6953,0,0,1,.3616.105l12.9917,7.5041a4.6185,4.6185,0,0,1,2.3018,3.986l.0015,2.4884a5.29,5.29,0,0,0,2.637,4.5662L164.2558,87.297a2.9533,2.9533,0,0,0,1.4723.3986,2.9939,2.9939,0,0,0,2.0523-.829,2.9146,2.9146,0,0,0,.9011-2.1256,1.7468,1.7468,0,0,1,.538-1.2742,1.8073,1.8073,0,0,1,1.2383-.5027,1.7435,1.7435,0,0,1,.8819.2413l8.7258,5.04a10.0521,10.0521,0,0,1,5.0109,8.68l.001,160.9164A1.0063,1.0063,0,0,1,184.0928,258.8272Z" style="fill:url(#linear-gradient-42)"/><path d="M158.2947,79.75l-17.2866-9.93a.8977.8977,0,0,1-.4493-.7777h0a.8976.8976,0,0,1,1.346-.7777l17.2867,9.93a.8978.8978,0,0,1,.4493.7778h0A.8977.8977,0,0,1,158.2947,79.75Z" style="fill:#bc492e"/><path d="M158.2947,239.5867l-17.2866-9.93a.8976.8976,0,0,1-.4493-.7777h0a.8977.8977,0,0,1,1.346-.7777l17.2867,9.93a.8976.8976,0,0,1,.4493.7777h0A.8977.8977,0,0,1,158.2947,239.5867Z" style="fill:#c5b0a4;opacity:0.52;mix-blend-mode:screen"/><path d="M191.8729,123.0349h0l-.6591-.2256c-.0128-.0042-.026-.0059-.0387-.01-.01-.0034-.018-.0087-.0274-.0123l-.0685-.0234.0037-.0055a1.2364,1.2364,0,0,1-.7114-1.1718V108.8587a2.0246,2.0246,0,0,1,2.306-1.9563l-.0011-.0029.0409.0135c.0215.0065.0436.01.0649.0174.0128.0046.0239.0114.0364.0163l.6614.22h0a1.2308,1.2308,0,0,1,.8036,1.213v12.7271A2.0045,2.0045,0,0,1,191.8729,123.0349Z" style="fill:url(#linear-gradient-43)"/><path d="M193.48,107.1664h0a2.0045,2.0045,0,0,0-2.4107,1.9283v12.7272a1.2311,1.2311,0,0,0,.8036,1.213h0a2.0045,2.0045,0,0,0,2.4107-1.9283V108.3794A1.2308,1.2308,0,0,0,193.48,107.1664Z" style="fill:url(#linear-gradient-44)"/><g style="opacity:0.75;mix-blend-mode:soft-light"><polygon points="182.076 221.106 118.124 183.623 118.124 144.301 182.076 181.616 182.076 221.106" style="fill:url(#linear-gradient-45)"/><polygon points="174.927 195.99 125.219 166.924 125.219 152.064 174.927 181.08 174.927 195.99" style="fill:url(#linear-gradient-46)"/><path d="M139.8486,165.0361l-10.2769-6.0021a1.3933,1.3933,0,0,1-.6654-1.0563c0-.3689.298-.4937.6654-.2792L139.8486,163.7a1.3951,1.3951,0,0,1,.6664,1.0573C140.515,165.1262,140.2165,165.251,139.8486,165.0361ZM170.93,186.8789a.9331.9331,0,0,0-.4461-.707l-40.9125-23.903c-.2452-.1433-.4436-.06-.4436.186a.929.929,0,0,0,.4436.7043l40.9125,23.9055C170.7308,187.2088,170.93,187.1255,170.93,186.8789Zm-6.6175-.8661a.9328.9328,0,0,0-.4456-.7067l-34.2955-20.0439c-.2452-.1433-.4436-.06-.4436.1859a.9294.9294,0,0,0,.4436.7045l34.2955,20.0459C164.1135,186.3425,164.3128,186.2592,164.3128,186.0128Z" style="fill:#fff0e0"/><polygon points="174.927 236.936 125.219 207.871 125.219 193.01 174.927 222.026 174.927 236.936" style="fill:url(#linear-gradient-47)"/><path d="M139.8486,205.9826l-10.2769-6.0021a1.3933,1.3933,0,0,1-.6654-1.0563c0-.3688.298-.4937.6654-.2792l10.2769,6.0012a1.3951,1.3951,0,0,1,.6664,1.0573C140.515,206.0727,140.2165,206.1975,139.8486,205.9826ZM170.93,227.8254a.9328.9328,0,0,0-.4461-.7069l-40.9125-23.9031c-.2452-.1433-.4436-.06-.4436.186a.929.929,0,0,0,.4436.7043l40.9125,23.9055C170.7308,228.1553,170.93,228.072,170.93,227.8254Zm-6.6175-.8661a.9328.9328,0,0,0-.4456-.7067l-34.2955-20.0439c-.2452-.1433-.4436-.06-.4436.1859a.9292.9292,0,0,0,.4436.7045l34.2955,20.0459C164.1135,227.289,164.3128,227.2057,164.3128,226.9593Z" style="fill:#fff0e0"/><polygon points="174.927 213.281 125.219 184.159 125.219 169.298 174.927 198.372 174.927 213.281" style="fill:url(#linear-gradient-48)"/><path d="M139.8486,182.2875l-10.2769-6.0139a1.3953,1.3953,0,0,1-.6654-1.0571c0-.3688.298-.4933.6654-.2784l10.2769,6.013a1.3971,1.3971,0,0,1,.6664,1.0581C140.515,182.3783,140.2165,182.5028,139.8486,182.2875ZM170.93,204.166a.9343.9343,0,0,0-.4461-.7075l-40.9125-23.95c-.2452-.1436-.4436-.06-.4436.1855a.93.93,0,0,0,.4436.7048l40.9125,23.9524C170.7308,204.4956,170.93,204.4125,170.93,204.166Zm-6.6175-.8738a.9338.9338,0,0,0-.4456-.7071l-34.2955-20.0833c-.2452-.1435-.4436-.06-.4436.1854a.9305.9305,0,0,0,.4436.705l34.2955,20.0852C164.1135,203.6217,164.3128,203.5386,164.3128,203.2922Z" style="fill:#ff8b27"/><polygon points="182.076 172.763 118.124 135.458 118.124 70.441 182.076 107.469 182.076 172.763" style="fill:url(#linear-gradient-49)"/><path d="M169.3355,162.4826,130.7776,139.998c-3.0705-1.79-5.5587-5.7387-5.5587-8.8191h0c0-3.0805,2.4882-4.1286,5.5587-2.34l38.5579,22.456c3.0875,1.7981,5.5914,5.7618,5.5914,8.8525h0C174.9269,163.2377,172.423,164.2831,169.3355,162.4826Z" style="fill:url(#linear-gradient-50)"/><path d="M135.1671,84.9118l-9.948-5.7629a1.385,1.385,0,0,1-.665-1.0528c0-.3687.2979-.495.665-.2823l9.948,5.762a1.3863,1.3863,0,0,1,.6659,1.0538C135.833,84.9986,135.5347,85.1248,135.1671,84.9118Z" style="fill:#ff853e"/><path d="M171.1622,105.0917c0,.37-.3.4966-.67.2823a1.3928,1.3928,0,0,1-.67-1.0581c0-.37.3-.4966.67-.2823A1.3927,1.3927,0,0,1,171.1622,105.0917Zm1.2122.0319c-.37-.2143-.67-.0879-.67.2823a1.3927,1.3927,0,0,0,.67,1.0583c.37.2143.67.088.67-.2822A1.393,1.393,0,0,0,172.3744,105.1236Zm1.8824,1.09c-.37-.2144-.67-.088-.67.2822a1.3932,1.3932,0,0,0,.67,1.0585c.37.2144.67.088.67-.2822A1.393,1.393,0,0,0,174.2568,106.214Z" style="fill:#ff853e"/><path d="M136.0553,137.27c0,1.7126-1.384,2.2942-3.091,1.2991a6.4612,6.4612,0,0,1-3.09-4.901c0-1.7119,1.3832-2.294,3.09-1.3A6.461,6.461,0,0,1,136.0553,137.27Z" style="fill:url(#linear-gradient-51)"/><polygon points="132.964 133.696 133.42 135.155 134.693 135.963 133.702 136.189 134.033 137.616 132.964 136.297 131.896 136.371 132.227 135.329 131.236 133.948 132.509 134.624 132.964 133.696" style="fill:#ff8b27"/><path d="M144.5877,142.2419c0,1.7136-1.3856,2.295-3.0944,1.2988A6.4669,6.4669,0,0,1,138.4,138.636c0-1.713,1.3848-2.2949,3.0933-1.3A6.4669,6.4669,0,0,1,144.5877,142.2419Z" style="fill:url(#linear-gradient-52)"/><polygon points="141.493 138.665 141.95 140.125 143.224 140.934 142.232 141.16 142.563 142.588 141.493 141.267 140.424 141.342 140.755 140.299 139.763 138.917 141.037 139.593 141.493 138.665" style="fill:#ff8b27"/><path d="M153.13,147.22c0,1.7146-1.3872,2.2959-3.098,1.2986a6.4729,6.4729,0,0,1-3.0968-4.9086c0-1.7139,1.3863-2.2957,3.0968-1.2993A6.4728,6.4728,0,0,1,153.13,147.22Z" style="fill:url(#linear-gradient-53)"/><polygon points="150.032 143.64 150.489 145.101 151.764 145.91 150.771 146.136 151.103 147.566 150.032 146.244 148.961 146.318 149.293 145.275 148.3 143.892 149.575 144.569 150.032 143.64" style="fill:#ff8b27"/><path d="M161.6817,152.2034c0,1.7156-1.3888,2.2968-3.1015,1.2983a6.4788,6.4788,0,0,1-3.1-4.9124c0-1.7148,1.3879-2.2965,3.1-1.299A6.4789,6.4789,0,0,1,161.6817,152.2034Z" style="fill:url(#linear-gradient-54)"/><polygon points="158.58 148.62 159.038 150.083 160.315 150.893 159.32 151.119 159.652 152.549 158.58 151.226 157.508 151.299 157.84 150.256 156.846 148.872 158.123 149.55 158.58 148.62" style="fill:#ff8b27"/><path d="M170.2432,157.1927c0,1.7166-1.39,2.2976-3.105,1.298a6.4849,6.4849,0,0,1-3.1038-4.9162c0-1.7159,1.3895-2.2974,3.1038-1.2987A6.4845,6.4845,0,0,1,170.2432,157.1927Z" style="fill:url(#linear-gradient-55)"/><polygon points="167.138 153.606 167.596 155.07 168.875 155.881 167.879 156.106 168.211 157.538 167.138 156.213 166.065 156.287 166.397 155.243 165.402 153.858 166.68 154.536 167.138 153.606" style="fill:#ff8b27"/><path d="M150.0319,131.83h0c-13.5814-7.9024-24.5734-25.3234-24.5734-38.9238V83.273l49.2274,28.5309v9.6643C174.6858,135.1132,163.6379,139.7464,150.0319,131.83Z" style="fill:url(#linear-gradient-56)"/><path d="M160.9956,133.5044c0,6.068-4.9106,8.1278-10.9637,4.6032-6.0483-3.5217-10.9479-11.2865-10.9479-17.3457s4.9-8.1254,10.9479-4.6125C156.085,119.6651,160.9956,127.4364,160.9956,133.5044Z" style="fill:url(#linear-gradient-57)"/><path d="M146.8873,121.9856c0-1.74,1.4076-2.3331,3.1443-1.3239a6.5606,6.5606,0,0,1,3.1456,4.98c0,1.741-1.4085,2.3333-3.1456,1.3231A6.5608,6.5608,0,0,1,146.8873,121.9856Zm3.15,13.6188c2.4144,1.4055,4.6152,1.7859,6.3024,1.2921-.2962-3.4045-3.0065-7.5126-6.3083-9.4328-3.2969-1.9174-6.0021-.966-6.3025,2.0838A20.3416,20.3416,0,0,0,150.0375,135.6044Z" style="fill:url(#linear-gradient-58)"/><path d="M164.4686,115.036,135.6227,98.3a2.3126,2.3126,0,0,1-1.11-1.7572c0-.6149.4968-.8251,1.11-.47l28.8459,16.7315a2.32,2.32,0,0,1,1.1143,1.7619C165.5829,115.1831,165.0841,115.393,164.4686,115.036Z" style="fill:#fff0e0"/><path d="M152.8512,112.1868l-14.4722-8.4a.9253.9253,0,0,1-.4441-.7032c0-.246.1986-.33.4441-.1877l14.4722,8.3994a.9266.9266,0,0,1,.445.7041C153.2962,112.2455,153.0972,112.33,152.8512,112.1868Z" style="fill:#fff0e0"/><path d="M161.7028,117.3246l-5.47-3.1752a.9273.9273,0,0,1-.4451-.7044c0-.2462.1991-.33.4451-.1875l5.47,3.1749a.9275.9275,0,0,1,.4455.7047C162.1483,117.3834,161.9491,117.4675,161.7028,117.3246Z" style="fill:#fff0e0"/></g><polygon points="146.62 222.597 67.786 176.392 67.786 127.919 146.62 173.918 146.62 222.597" style="fill:url(#linear-gradient-59)"/><polygon points="137.807 191.636 76.532 155.807 76.532 137.488 137.807 173.257 137.807 191.636" style="fill:url(#linear-gradient-60)"/><path d="M94.5662,153.4794l-12.6684-7.3987a1.7181,1.7181,0,0,1-.82-1.3021c0-.4547.3674-.6086.82-.3442l12.6684,7.3976a1.72,1.72,0,0,1,.8214,1.3035C95.3876,153.5905,95.02,153.7443,94.5662,153.4794Zm38.3143,26.9257a1.15,1.15,0,0,0-.55-.8715L81.8978,150.0683c-.3022-.1766-.5468-.0738-.5468.2293a1.1453,1.1453,0,0,0,.5468.8682l50.4329,29.4683C132.6346,180.8117,132.8805,180.709,132.8805,180.4051Zm-8.1573-1.0677a1.15,1.15,0,0,0-.5494-.8711l-42.276-24.7081c-.3022-.1767-.5468-.0739-.5468.2291a1.1456,1.1456,0,0,0,.5468.8684l42.276,24.7106C124.4775,179.7438,124.7232,179.6412,124.7232,179.3374Z" style="fill:#fff0e0"/><polygon points="137.807 212.951 76.532 177.052 76.532 158.733 137.807 194.572 137.807 212.951" style="fill:url(#linear-gradient-61)"/><path d="M94.5662,174.7452,81.8978,167.332a1.72,1.72,0,0,1-.82-1.3031c0-.4547.3674-.6082.82-.3432l12.6684,7.4121a1.7223,1.7223,0,0,1,.8214,1.3044C95.3876,174.8572,95.02,175.0106,94.5662,174.7452Zm38.3143,26.97a1.1519,1.1519,0,0,0-.55-.8721L81.8978,171.32c-.3022-.177-.5468-.0745-.5468.2286a1.1471,1.1471,0,0,0,.5468.8689l50.4329,29.5261C132.6346,202.1211,132.8805,202.0187,132.8805,201.7148Zm-8.1573-1.077a1.1511,1.1511,0,0,0-.5494-.8717L81.8978,175.01c-.3022-.177-.5468-.0746-.5468.2285a1.1473,1.1473,0,0,0,.5468.869l42.276,24.7591C124.4775,201.0439,124.7232,200.9415,124.7232,200.6378Z" style="fill:#ff8b27"/><polygon points="125.021 159.644 46.187 113.658 46.187 33.511 125.021 79.156 125.021 159.644" style="fill:url(#linear-gradient-62)"/><path d="M67.1967,51.3493,54.9338,44.2454a1.707,1.707,0,0,1-.82-1.2978c0-.4545.3672-.61.82-.348l12.2629,7.1028a1.7088,1.7088,0,0,1,.8209,1.299C68.0176,51.4563,67.65,51.6119,67.1967,51.3493Z" style="fill:#ff853e"/><path d="M111.5678,76.2251c0,.4563-.37.6121-.8256.348a1.7168,1.7168,0,0,1-.8255-1.3044c0-.4562.37-.6121.8255-.348A1.7167,1.7167,0,0,1,111.5678,76.2251Zm1.4943.0393c-.456-.2641-.8257-.1083-.8257.348a1.7173,1.7173,0,0,0,.8257,1.3046c.4561.2642.8258.1084.8258-.3479A1.7172,1.7172,0,0,0,113.0621,76.2644Zm2.32,1.3441c-.4562-.2642-.8259-.1084-.8259.3479a1.7172,1.7172,0,0,0,.8259,1.3048c.4561.2643.826.1085.826-.3479A1.7176,1.7176,0,0,0,115.3826,77.6085Z" style="fill:#ff853e"/><path d="M109.3161,146.9709l-47.53-27.7168c-3.785-2.2072-6.8522-7.0741-6.8522-10.8714h0c0-3.7973,3.0672-5.0892,6.8522-2.8849l47.53,27.6816c3.806,2.2166,6.8925,7.1026,6.8925,10.9125h0C116.2086,147.9017,113.1221,149.19,109.3161,146.9709Z" style="fill:url(#linear-gradient-63)"/><path d="M68.2916,115.8907c0,2.1112-1.7061,2.8281-3.81,1.6015a7.9648,7.9648,0,0,1-3.8086-6.0414c0-2.11,1.705-2.8279,3.8086-1.6024A7.9644,7.9644,0,0,1,68.2916,115.8907Z" style="fill:url(#linear-gradient-64)"/><polygon points="64.481 111.485 65.043 113.284 66.612 114.28 65.39 114.559 65.798 116.318 64.481 114.691 63.165 114.783 63.572 113.499 62.351 111.797 63.92 112.629 64.481 111.485" style="fill:#ff8b27"/><path d="M78.81,122.02c0,2.1124-1.708,2.8291-3.8146,1.6011a7.972,7.972,0,0,1-3.813-6.0461c0-2.1115,1.707-2.8289,3.813-1.602A7.9715,7.9715,0,0,1,78.81,122.02Z" style="fill:url(#linear-gradient-65)"/><polygon points="74.995 117.611 75.557 119.411 77.128 120.408 75.905 120.686 76.313 122.447 74.995 120.819 73.677 120.91 74.085 119.626 72.862 117.922 74.433 118.755 74.995 117.611" style="fill:#ff8b27"/><path d="M89.3394,128.1564c0,2.1136-1.71,2.83-3.8189,1.6008a7.9792,7.9792,0,0,1-3.8173-6.0508c0-2.1128,1.7088-2.83,3.8173-1.6017A7.979,7.979,0,0,1,89.3394,128.1564Z" style="fill:url(#linear-gradient-66)"/><polygon points="85.521 123.743 86.084 125.545 87.656 126.542 86.432 126.821 86.84 128.583 85.521 126.953 84.201 127.044 84.609 125.759 83.385 124.054 84.957 124.888 85.521 123.743" style="fill:#ff8b27"/><path d="M99.8812,134.3c0,2.1148-1.7119,2.8312-3.8232,1.6a7.9865,7.9865,0,0,1-3.8217-6.0555c0-2.1139,1.7109-2.831,3.8217-1.6013A7.9863,7.9863,0,0,1,99.8812,134.3Z" style="fill:url(#linear-gradient-67)"/><polygon points="96.058 129.883 96.622 131.685 98.196 132.684 96.97 132.962 97.379 134.725 96.058 133.095 94.737 133.185 95.146 131.899 93.921 130.193 95.494 131.028 96.058 129.883" style="fill:#ff8b27"/><path d="M110.4351,140.45c0,2.116-1.7139,2.8323-3.8276,1.6a7.9935,7.9935,0,0,1-3.826-6.06c0-2.1151,1.7127-2.832,3.826-1.6009A7.9937,7.9937,0,0,1,110.4351,140.45Z" style="fill:url(#linear-gradient-68)"/><polygon points="106.608 136.029 107.172 137.833 108.748 138.833 107.521 139.111 107.93 140.875 106.608 139.243 105.285 139.333 105.694 138.047 104.468 136.339 106.043 137.175 106.608 136.029" style="fill:#ff8b27"/><path d="M85.5205,109.185h0C68.7786,99.4437,55.2288,77.9688,55.2288,61.2035V49.3292l60.6826,35.17V96.4124C115.9114,113.2325,102.2927,118.9439,85.5205,109.185Z" style="fill:url(#linear-gradient-69)"/><path d="M99.0355,111.2494c0,7.48-6.0533,10.0192-13.515,5.6744-7.4557-4.3412-13.4954-13.9129-13.4954-21.382s6.04-10.0162,13.4954-5.6859C92.9822,94.19,99.0355,103.7694,99.0355,111.2494Z" style="fill:url(#linear-gradient-70)"/><path d="M81.6442,97.05c0-2.1452,1.7351-2.8759,3.876-1.6319a8.0874,8.0874,0,0,1,3.8776,6.1392c0,2.1461-1.7363,2.8762-3.8776,1.631A8.0874,8.0874,0,0,1,81.6442,97.05Zm3.8832,16.788c2.9763,1.7325,5.6891,2.2014,7.769,1.5927-.3651-4.1966-3.7061-9.2607-7.7762-11.6278-4.0641-2.3635-7.3988-1.1908-7.7691,2.5687A25.0736,25.0736,0,0,0,85.5274,113.8381Z" style="fill:url(#linear-gradient-71)"/><path d="M103.3167,88.4834l-35.5583-20.63A2.8507,2.8507,0,0,1,66.39,65.6871c0-.758.6124-1.0171,1.3681-.5788l35.5583,20.6249a2.86,2.86,0,0,1,1.3736,2.1719C104.69,88.6647,104.0754,88.9236,103.3167,88.4834Z" style="fill:#fff0e0"/><path d="M88.9959,84.9712,71.156,74.6163a1.141,1.141,0,0,1-.5475-.8669c0-.3032.2449-.4069.5475-.2313l17.84,10.3539a1.1427,1.1427,0,0,1,.5486.868C89.5445,85.0435,89.2991,85.1472,88.9959,84.9712Z" style="fill:#fff0e0"/><path d="M99.9073,91.3046l-6.7434-3.9141a1.143,1.143,0,0,1-.5487-.8683c0-.3035.2454-.4072.5487-.2312l6.7434,3.9137a1.1438,1.1438,0,0,1,.5492.8687C100.4565,91.3771,100.2108,91.4808,99.9073,91.3046Z" style="fill:#fff0e0"/><path d="M233.5333,208.6617l-52.4371-30.5782c-4.1757-2.435-7.56-7.8044-7.56-11.9937h0c0-4.1893,3.3839-5.6146,7.56-3.1827l52.4371,30.5392c4.1989,2.4455,7.604,7.8359,7.604,12.0391h0C241.1373,209.6886,237.7322,211.11,233.5333,208.6617Z" style="fill:url(#linear-gradient-72)"/><path d="M188.2736,174.3729c0,2.3292-1.8822,3.12-4.2036,1.7668s-4.2019-4.3369-4.2019-6.6651,1.8811-3.12,4.2019-1.7678S188.2736,172.0437,188.2736,174.3729Z" style="fill:url(#linear-gradient-73)"/><polygon points="184.07 169.512 184.69 171.497 186.421 172.595 185.073 172.903 185.523 174.845 184.07 173.05 182.618 173.151 183.067 171.734 181.72 169.856 183.45 170.775 184.07 169.512" style="fill:#ff8b27"/><path d="M199.8774,181.135c0,2.3305-1.8844,3.1212-4.2084,1.7664s-4.2066-4.3407-4.2066-6.67,1.8831-3.121,4.2066-1.7675S199.8774,178.8046,199.8774,181.135Z" style="fill:url(#linear-gradient-74)"/><polygon points="195.669 176.27 196.29 178.256 198.022 179.356 196.673 179.664 197.123 181.606 195.669 179.81 194.215 179.911 194.665 178.493 193.316 176.614 195.049 177.533 195.669 176.27" style="fill:#ff8b27"/><path d="M211.4943,187.9049c0,2.3318-1.8865,3.1223-4.2131,1.766s-4.2115-4.3446-4.2115-6.6755,1.8853-3.1221,4.2115-1.767S211.4943,185.573,211.4943,187.9049Z" style="fill:url(#linear-gradient-75)"/><polygon points="207.281 183.036 207.902 185.023 209.637 186.124 208.286 186.431 208.737 188.375 207.281 186.577 205.825 186.678 206.276 185.26 204.926 183.379 206.66 184.299 207.281 183.036" style="fill:#ff8b27"/><path d="M223.1244,194.6824c0,2.3331-1.8886,3.1235-4.2179,1.7656S214.69,192.1,214.69,189.7673s1.8874-3.1232,4.2162-1.7666S223.1244,192.3492,223.1244,194.6824Z" style="fill:url(#linear-gradient-76)"/><polygon points="218.907 189.809 219.529 191.798 221.265 192.9 219.913 193.207 220.364 195.152 218.907 193.353 217.449 193.453 217.9 192.034 216.548 190.151 218.285 191.073 218.907 189.809" style="fill:#ff8b27"/><path d="M234.7678,201.4676c0,2.3344-1.8908,3.1246-4.2227,1.7652s-4.221-4.3523-4.221-6.6858,1.89-3.1244,4.221-1.7663S234.7678,199.1331,234.7678,201.4676Z" style="fill:url(#linear-gradient-77)"/><polygon points="230.545 196.59 231.168 198.581 232.907 199.684 231.553 199.99 232.004 201.937 230.545 200.136 229.086 200.236 229.538 198.816 228.184 196.932 229.922 197.855 230.545 196.59" style="fill:#ff8b27"/><polygon points="237.439 249.988 169.838 210.46 169.838 190.25 237.439 229.711 237.439 249.988" style="fill:url(#linear-gradient-78)"/><path d="M189.7341,207.8922,175.7579,199.73a1.8954,1.8954,0,0,1-.9049-1.4365c0-.5017.4054-.6714.9049-.38l13.9762,8.1613a1.8976,1.8976,0,0,1,.9063,1.438C190.64,208.0147,190.2344,208.1844,189.7341,207.8922Zm42.27,29.7053a1.2693,1.2693,0,0,0-.6066-.9615l-55.6394-32.5071c-.3334-.1949-.6032-.0814-.6032.2529a1.2636,1.2636,0,0,0,.6032.9579L231.3973,237.85C231.7325,238.0461,232.0039,237.9328,232.0039,237.5975Zm-8.9995-1.1779a1.2684,1.2684,0,0,0-.6061-.961L175.7579,208.2c-.3334-.1949-.6032-.0815-.6032.2528a1.2638,1.2638,0,0,0,.6032.958l46.64,27.2616C222.7333,236.8679,223.0044,236.7547,223.0044,236.42Z" style="fill:#fff0e0"/><polygon points="268.273 186.964 200.672 147.436 200.672 127.226 268.273 166.687 268.273 186.964" style="fill:url(#linear-gradient-79)"/><path d="M220.5679,144.8683l-13.9762-8.1625a1.8953,1.8953,0,0,1-.9049-1.4366c0-.5016.4053-.6714.9049-.38l13.9762,8.1614a1.8971,1.8971,0,0,1,.9062,1.4379C221.4741,144.9908,221.0682,145.1605,220.5679,144.8683Zm42.27,29.7054a1.2689,1.2689,0,0,0-.6066-.9615L206.5917,141.105c-.3335-.1948-.6033-.0814-.6033.2529a1.2631,1.2631,0,0,0,.6033.9579l55.6393,32.5105C262.5663,175.0222,262.8376,174.9089,262.8376,174.5737Zm-8.9994-1.178a1.2684,1.2684,0,0,0-.6061-.961l-46.64-27.2589c-.3335-.1948-.6033-.0815-.6033.2529a1.2636,1.2636,0,0,0,.6033.958l46.64,27.2616C253.5671,173.8441,253.8382,173.7308,253.8382,173.3957Z" style="fill:#fff0e0"/><polygon points="244.033 278.631 176.432 239.025 176.432 218.815 244.033 258.354 244.033 278.631" style="fill:url(#linear-gradient-80)"/><path d="M196.3281,236.48l-13.9762-8.1785a1.898,1.898,0,0,1-.9049-1.4376c0-.5017.4053-.671.9049-.3787l13.9762,8.1774a1.9,1.9,0,0,1,.9062,1.439C197.2343,236.6037,196.8284,236.7729,196.3281,236.48Zm42.27,29.7539a1.2708,1.2708,0,0,0-.6066-.9622l-55.6393-32.571c-.3335-.1952-.6033-.0821-.6033.2522a1.265,1.265,0,0,0,.6033.9586l55.6393,32.5743C238.3265,266.6822,238.5978,266.5692,238.5978,266.234Zm-8.9994-1.1883a1.27,1.27,0,0,0-.6061-.9617l-46.64-27.3124c-.3335-.1952-.6033-.0822-.6033.2522a1.2655,1.2655,0,0,0,.6033.9587l46.64,27.3151C229.3273,265.4938,229.5984,265.3808,229.5984,265.0457Z" style="fill:#ff8b27"/><polygon points="111.576 234.76 43.975 195.154 43.975 174.944 111.576 214.483 111.576 234.76" style="fill:url(#linear-gradient-81)"/><path d="M63.8711,192.6093l-13.9762-8.1786a1.898,1.898,0,0,1-.9049-1.4376c0-.5017.4053-.6709.9049-.3786l13.9762,8.1773a1.9,1.9,0,0,1,.9063,1.439C64.7774,192.7328,64.3714,192.902,63.8711,192.6093Zm42.27,29.7538a1.271,1.271,0,0,0-.6066-.9622L49.8949,188.83c-.3334-.1952-.6032-.0821-.6032.2523a1.2651,1.2651,0,0,0,.6032.9585l55.6394,32.5743C105.87,222.8113,106.1409,222.6983,106.1409,222.3631Zm-8.9995-1.1883a1.27,1.27,0,0,0-.6061-.9617l-46.64-27.3123c-.3334-.1953-.6032-.0822-.6032.2521a1.2656,1.2656,0,0,0,.6032.9587l46.64,27.3151C96.87,221.6229,97.1414,221.51,97.1414,221.1748Z" style="fill:#ff8b27"/><path d="M187.441,150.5373c0,8.2523-6.6782,11.0535-14.91,6.26-8.2255-4.7894-14.8886-15.3491-14.8886-23.5894s6.6631-11.05,14.8886-6.2728C180.7628,131.7165,187.441,142.2851,187.441,150.5373Z" style="fill:url(#linear-gradient-82)"/><path d="M168.2543,134.8722c0-2.3667,1.9143-3.1729,4.2761-1.8s4.2779,4.4053,4.2779,6.773-1.9155,3.1731-4.2779,1.7993S168.2543,137.2388,168.2543,134.8722Zm4.2841,18.5211c3.2836,1.9114,6.2764,2.4286,8.5711,1.7571-.4029-4.63-4.0888-10.2168-8.5791-12.8282-4.4836-2.6075-8.1626-1.3137-8.5712,2.8339A27.6634,27.6634,0,0,0,172.5384,153.3933Z" style="fill:url(#linear-gradient-83)"/><path d="M111.9289,247.1857c0,8.2522-6.6782,11.0535-14.91,6.26C88.7932,248.6565,82.13,238.0967,82.13,229.8565s6.6632-11.05,14.8886-6.2729C105.2507,228.3649,111.9289,238.9334,111.9289,247.1857Z" style="fill:url(#linear-gradient-84)"/><path d="M92.7421,231.5205c0-2.3667,1.9143-3.1728,4.2762-1.8s4.2779,4.4053,4.2779,6.773-1.9155,3.1731-4.2779,1.7993S92.7421,233.8872,92.7421,231.5205Zm4.2842,18.5211c3.2835,1.9114,6.2764,2.4287,8.571,1.7571-.4028-4.63-4.0887-10.2167-8.579-12.8281-4.4837-2.6076-8.1626-1.3138-8.5712,2.8338A27.6634,27.6634,0,0,0,97.0263,250.0416Z" style="fill:url(#linear-gradient-85)"/><g style="opacity:0.99"><path d="M41.7024,166.9037,5.2545,145.65C2.352,143.9569,0,140.2248,0,137.3129H0c0-2.9119,2.352-3.9026,5.2545-2.2122l36.4479,21.2272c2.9186,1.7,5.2854,5.4465,5.2854,8.3681h0C46.9878,167.6175,44.621,168.6056,41.7024,166.9037Z" style="fill:url(#linear-gradient-86)"/><path d="M10.2434,143.07c0,1.619-1.3083,2.1687-2.9219,1.2281a6.1077,6.1077,0,0,1-2.9206-4.6328c0-1.6183,1.3075-2.1685,2.9206-1.2288A6.1075,6.1075,0,0,1,10.2434,143.07Z" style="fill:url(#linear-gradient-87)"/><polygon points="7.322 139.692 7.752 141.071 8.956 141.835 8.019 142.049 8.331 143.398 7.322 142.151 6.312 142.221 6.625 141.236 5.688 139.931 6.891 140.569 7.322 139.692" style="fill:#ff8b27"/><path d="M18.3089,147.7705c0,1.62-1.31,2.1695-2.9252,1.2278a6.113,6.113,0,0,1-2.9239-4.6364c0-1.6192,1.3089-2.1693,2.9239-1.2284A6.1129,6.1129,0,0,1,18.3089,147.7705Z" style="fill:url(#linear-gradient-88)"/><polygon points="15.384 144.389 15.815 145.77 17.02 146.534 16.082 146.748 16.395 148.098 15.384 146.849 14.373 146.92 14.686 145.934 13.748 144.628 14.952 145.267 15.384 144.389" style="fill:#ff8b27"/><path d="M26.3836,152.4761c0,1.6208-1.3113,2.17-2.9285,1.2275a6.1186,6.1186,0,0,1-2.9272-4.64c0-1.62,1.31-2.17,2.9272-1.2282A6.1187,6.1187,0,0,1,26.3836,152.4761Z" style="fill:url(#linear-gradient-89)"/><polygon points="23.455 149.092 23.887 150.473 25.093 151.238 24.154 151.452 24.467 152.803 23.455 151.553 22.443 151.623 22.757 150.638 21.818 149.33 23.023 149.97 23.455 149.092" style="fill:#ff8b27"/><path d="M34.4675,157.187c0,1.6217-1.3128,2.1711-2.9318,1.2272a6.1242,6.1242,0,0,1-2.9306-4.6435c0-1.6211,1.3119-2.1709,2.9306-1.228A6.1245,6.1245,0,0,1,34.4675,157.187Z" style="fill:url(#linear-gradient-90)"/><polygon points="31.536 153.8 31.968 155.182 33.175 155.948 32.235 156.162 32.549 157.513 31.536 156.263 30.523 156.332 30.836 155.346 29.897 154.038 31.103 154.678 31.536 153.8" style="fill:#ff8b27"/><path d="M42.5605,161.9032c0,1.6227-1.3142,2.1719-2.9351,1.227a6.13,6.13,0,0,1-2.9339-4.6472c0-1.6219,1.3134-2.1717,2.9339-1.2276A6.13,6.13,0,0,1,42.5605,161.9032Z" style="fill:url(#linear-gradient-91)"/><polygon points="39.625 158.513 40.058 159.896 41.267 160.663 40.326 160.876 40.64 162.229 39.625 160.978 38.611 161.047 38.925 160.06 37.984 158.751 39.193 159.392 39.625 158.513" style="fill:#ff8b27"/><path d="M23.4551,137.9281h0C10.6168,130.4581.2263,113.99.2263,101.1342V92.0285l46.5337,26.97v9.1355C46.76,141.0319,36.3166,145.4116,23.4551,137.9281Z" style="fill:url(#linear-gradient-92)"/><path d="M33.8189,139.5112c0,5.7359-4.6419,7.683-10.3638,4.3513-5.7173-3.329-10.3487-10.6689-10.3487-16.3965s4.6314-7.6808,10.3487-4.36C29.177,126.4292,33.8189,133.7752,33.8189,139.5112Z" style="fill:url(#linear-gradient-93)"/><path d="M20.4826,128.6227c0-1.6451,1.3306-2.2054,2.9723-1.2514a6.2016,6.2016,0,0,1,2.9735,4.7077c0,1.6457-1.3315,2.2056-2.9735,1.2507A6.2017,6.2017,0,0,1,20.4826,128.6227ZM23.46,141.4963c2.2824,1.3286,4.3627,1.6881,5.9576,1.2213a12.7885,12.7885,0,0,0-5.9631-8.9166c-3.1165-1.8124-5.6737-.9131-5.9577,1.97A19.2279,19.2279,0,0,0,23.46,141.4963Z" style="fill:url(#linear-gradient-94)"/><path d="M37.1019,122.0534l-27.2674-15.82a2.186,2.186,0,0,1-1.0491-1.6611c0-.5812.47-.78,1.0491-.4438l27.2674,15.816a2.1925,2.1925,0,0,1,1.0533,1.6654C38.1552,122.1924,37.6837,122.3909,37.1019,122.0534Z" style="fill:#fff0e0"/><path d="M26.12,119.36l-13.68-7.94a.8749.8749,0,0,1-.42-.6648c0-.2325.1878-.312.42-.1773l13.68,7.94a.8759.8759,0,0,1,.4206.6656C26.5408,119.4156,26.3527,119.4951,26.12,119.36Z" style="fill:#fff0e0"/><path d="M34.4874,124.2168l-5.171-3.0015a.8764.8764,0,0,1-.4208-.6658c0-.2328.1882-.3123.4208-.1773l5.171,3.0011a.877.877,0,0,1,.4212.6662C34.9086,124.2724,34.72,124.3519,34.4874,124.2168Z" style="fill:#fff0e0"/></g><path d="M54.2763,178.88c0,8.2522-6.6783,11.0535-14.91,6.26-8.2254-4.7894-14.8886-15.3492-14.8886-23.5894s6.6632-11.05,14.8886-6.2729C47.598,160.0593,54.2763,170.6278,54.2763,178.88Z" style="fill:url(#linear-gradient-95)"/><path d="M35.09,163.2149c0-2.3667,1.9143-3.1728,4.2761-1.8s4.278,4.4053,4.278,6.773-1.9155,3.1731-4.278,1.7993S35.09,165.5816,35.09,163.2149Zm4.2841,18.5211c3.2836,1.9114,6.2765,2.4287,8.5711,1.7571-.4028-4.63-4.0887-10.2167-8.5791-12.8282-4.4836-2.6075-8.1625-1.3137-8.5711,2.8339A27.6642,27.6642,0,0,0,39.3736,181.736Z" style="fill:url(#linear-gradient-96)"/></g></g></g></svg>